<svg width="151" height="34" viewBox="0 0 151 34" fill="none" xmlns="http://www.w3.org/2000/svg">
<path d="M10.989 9.62263C11.2767 10.2267 11.0178 10.8021 10.5288 11.0322C10.0541 11.248 9.21984 11.1185 8.78833 10.3418C8.63011 10.0541 8.41436 9.43564 8.08354 8.77399C7.73833 8.04043 7.1486 8.11235 7.1486 8.11235H4.44447C4.44447 8.11235 3.84036 7.99728 3.38008 8.81715C3.03488 9.45003 2.60337 10.3562 2.4883 10.5288C2.01364 11.1904 1.72597 11.3774 1.06432 11.2336C0.402671 11.0898 -7.10798e-05 10.4713 0.345136 9.55071C0.690344 8.63016 3.16433 3.71095 3.53831 2.80478C3.8979 1.88423 4.31502 0.575319 4.99105 0.287646C5.68147 -2.65521e-05 6.87531 0.14381 7.24928 0.77669C7.62326 1.39519 10.7014 9.01852 10.989 9.62263ZM6.09859 3.92671C5.95476 3.59588 5.75339 3.5815 5.59517 3.94109C5.43695 4.27191 5.23557 4.71781 5.0342 5.20685C4.7753 5.79658 5.32188 5.76781 5.32188 5.76781L6.34311 5.75343C6.34311 5.75343 6.80339 5.75343 6.63079 5.22124C6.47257 4.78973 6.24243 4.30068 6.09859 3.92671ZM19.9134 4.77534C20.3449 3.32259 21.3949 3.06369 22.4018 3.02054C23.6675 2.97739 24.6312 3.4089 24.8901 3.99863C25.1347 4.55959 24.8614 5.42261 23.9984 5.43699C23.2504 5.43699 22.6175 4.90479 22.1716 5.43699C21.7401 5.9548 22.6894 6.19932 23.1641 6.58768C23.8689 7.17741 24.9621 8.18427 24.5449 9.70893C24.1853 11.0035 23.3942 11.4925 21.8983 11.4637C20.3305 11.4494 19.7408 10.9459 19.4244 10.5288C19.1079 10.1261 19.41 8.65893 20.6038 8.91783C21.4093 9.09043 22.3011 9.39249 22.4593 8.97537C22.7038 8.35687 21.4668 8.05481 20.8771 7.50823C20.1148 6.81782 19.5826 5.89727 19.9134 4.77534ZM26.4901 7.04796C26.4901 5.68151 27.3531 3.89794 29.036 3.72534C30.7189 3.53835 31.7545 4.12808 32.3442 5.20685C32.9196 6.27124 32.6463 7.35001 31.7257 7.93974C31.2223 8.25618 30.1867 8.29933 29.5826 8.29933C29.3093 8.29933 29.1798 8.45755 29.3668 8.61577C29.6257 8.83153 30.1435 9.0329 31.1504 8.80276C31.8408 8.64454 32.6463 9.43564 32.2004 10.2267C31.9415 10.7014 31.0785 11.2767 29.2661 10.9603C27.7846 10.7014 26.4901 9.78085 26.4901 7.04796ZM30.6182 6.06987C30.4888 5.59521 29.9134 5.35069 29.3524 5.56644C28.8059 5.7822 28.7627 6.34316 29.036 6.55891C29.4387 6.86097 30.7764 6.63083 30.6182 6.06987ZM34.4468 5.03425C34.3893 4.01301 34.677 3.42328 35.4393 3.42328C36.2016 3.42328 36.6188 3.88356 36.6188 4.58836C36.6188 5.03425 36.8345 5.12055 37.1653 4.87603C37.5106 4.61712 37.9708 4.32945 38.4743 4.17123C39.4955 3.85479 40.488 4.01301 40.675 4.83288C40.8763 5.65274 40.4448 6.02672 39.3085 6.34316C38.0859 6.68837 37.2948 7.42193 36.9784 8.52947C36.7195 9.42126 36.9208 10.7158 36.0722 10.9315C34.6914 11.3055 34.7633 10.4856 34.6338 9.79523C34.5044 9.09043 34.5188 6.05549 34.4468 5.03425ZM41.7392 5.58083C41.4228 4.74658 41.4803 4.2 42.1564 3.79725C42.8612 3.39451 43.5084 3.84041 43.9399 4.64589C44.2276 5.19247 45.0762 6.67398 45.594 7.58015C45.8386 7.99728 46.1838 8.02605 46.4427 7.6233C47.0756 6.64522 48.2406 4.87603 48.4852 4.51644C48.8304 4.01301 49.4489 3.43766 50.1968 3.91232C50.9448 4.38698 50.7865 5.1637 50.6139 5.59521C50.4557 6.0411 48.2119 9.32057 47.7084 10.1404C46.9749 11.3055 45.1769 11.4781 44.3139 10.0685C43.2639 8.37125 41.9694 6.24247 41.7392 5.58083ZM53.7119 4.17123C52.8058 4.22876 52.1441 3.48081 52.2448 2.63218C52.3886 1.49587 53.6544 1.22258 54.1578 1.49587C54.7476 1.79793 55.0065 2.28697 55.0065 2.89108C55.0065 3.4952 54.6181 4.09931 53.7119 4.17123ZM52.3167 9.55071C52.2448 8.78838 52.216 7.39317 52.3023 6.24247C52.3742 5.10617 52.9496 4.70342 53.6688 4.70342C54.3736 4.70342 54.877 5.27877 54.877 6.50138C54.877 7.76714 54.9489 9.21989 54.8051 9.98222C54.6469 10.7446 54.2441 11.2192 53.4818 11.1617C52.4749 11.0754 52.3886 10.313 52.3167 9.55071ZM62.1118 10.9315C61.4645 11.1185 60.6734 11.2048 59.2926 10.8596C57.9261 10.5432 56.8186 9.26304 56.7035 7.55139C56.6028 5.82535 57.4946 4.2 59.3645 3.69657C60.8604 3.27944 62.0974 3.69657 62.6583 4.05616C63.0179 4.2863 63.4782 4.74658 63.2049 5.53768C62.9892 6.18494 62.4426 6.45823 61.8385 6.24247C60.9035 5.91165 59.6234 5.85412 59.3645 7.04796C59.2206 7.78152 59.5658 8.40002 60.7597 8.54386C61.3926 8.61577 62.1549 8.40002 62.572 8.50071C62.8453 8.55824 63.3631 8.83153 63.3631 9.6514C63.3631 10.4137 62.7159 10.7589 62.1118 10.9315ZM64.6967 7.04796C64.6967 5.68151 65.5597 3.89794 67.2426 3.72534C68.9254 3.53835 69.9611 4.12808 70.5508 5.20685C71.1261 6.27124 70.8529 7.35001 69.9323 7.93974C69.4289 8.25618 68.3932 8.29933 67.7891 8.29933C67.5158 8.29933 67.3864 8.45755 67.5734 8.61577C67.8323 8.83153 68.3501 9.0329 69.357 8.80276C70.0474 8.64454 70.8529 9.43564 70.407 10.2267C70.1481 10.7014 69.285 11.2767 67.4727 10.9603C65.9912 10.7014 64.6967 9.78085 64.6967 7.04796ZM68.8248 6.06987C68.6953 5.59521 68.12 5.35069 67.559 5.56644C67.0124 5.7822 66.9693 6.34316 67.2426 6.55891C67.6453 6.86097 68.983 6.63083 68.8248 6.06987ZM86.7637 9.53633C86.6343 11.061 85.613 10.9747 84.4192 11.0178C83.2254 11.0754 81.111 10.9459 80.2192 9.70893C79.313 8.47194 79.2986 6.5733 80.4493 5.14932C81.2548 4.15685 82.7651 3.96986 83.6281 3.94109C84.0165 3.92671 84.2754 3.65342 84.2754 3.27944C84.2754 2.74725 84.2754 2.02807 84.2754 1.69724C84.2754 1.13628 84.7644 0.46025 85.3973 0.373948C86.0302 0.302029 86.7637 0.719156 86.7494 1.59656C86.7206 2.58903 86.8932 8.02605 86.7637 9.53633ZM84.563 6.94727C84.563 6.40069 84.3185 6.18494 83.7863 6.18494C83.2397 6.18494 82.5206 6.19932 82.1322 6.9185C81.8158 7.537 82.0171 8.37125 82.6644 8.71646C83.2829 9.04728 84.5055 9.00413 84.5343 8.38564C84.563 7.83906 84.563 7.37878 84.563 6.94727ZM88.6319 7.04796C88.6319 5.68151 89.4949 3.89794 91.1778 3.72534C92.8607 3.53835 93.8963 4.12808 94.4861 5.20685C95.0614 6.27124 94.7881 7.35001 93.8676 7.93974C93.3641 8.25618 92.3285 8.29933 91.7244 8.29933C91.4511 8.29933 91.3217 8.45755 91.5087 8.61577C91.7676 8.83153 92.2854 9.0329 93.2922 8.80276C93.9826 8.64454 94.7881 9.43564 94.3422 10.2267C94.0833 10.7014 93.2203 11.2767 91.408 10.9603C89.9265 10.7014 88.6319 9.78085 88.6319 7.04796ZM92.76 6.06987C92.6306 5.59521 92.0552 5.35069 91.4943 5.56644C90.9477 5.7822 90.9045 6.34316 91.1778 6.55891C91.5806 6.86097 92.9182 6.63083 92.76 6.06987ZM96.0852 5.58083C95.7688 4.74658 95.8263 4.2 96.5024 3.79725C97.2072 3.39451 97.8544 3.84041 98.2859 4.64589C98.5736 5.19247 99.4222 6.67398 99.9401 7.58015C100.185 7.99728 100.53 8.02605 100.789 7.6233C101.422 6.64522 102.587 4.87603 102.831 4.51644C103.176 4.01301 103.795 3.43766 104.543 3.91232C105.291 4.38698 105.133 5.1637 104.96 5.59521C104.802 6.0411 102.558 9.32057 102.054 10.1404C101.321 11.3055 99.5229 11.4781 98.6599 10.0685C97.6099 8.37125 96.3154 6.24247 96.0852 5.58083ZM106.274 7.04796C106.274 5.68151 107.137 3.89794 108.82 3.72534C110.503 3.53835 111.539 4.12808 112.128 5.20685C112.704 6.27124 112.431 7.35001 111.51 7.93974C111.007 8.25618 109.971 8.29933 109.367 8.29933C109.094 8.29933 108.964 8.45755 109.151 8.61577C109.41 8.83153 109.928 9.0329 110.935 8.80276C111.625 8.64454 112.431 9.43564 111.985 10.2267C111.726 10.7014 110.863 11.2767 109.05 10.9603C107.569 10.7014 106.274 9.78085 106.274 7.04796ZM110.402 6.06987C110.273 5.59521 109.698 5.35069 109.137 5.56644C108.59 5.7822 108.547 6.34316 108.82 6.55891C109.223 6.86097 110.561 6.63083 110.402 6.06987ZM116.662 9.50756C116.619 10.3993 116.604 10.9747 115.583 11.0322C114.634 11.1041 114.332 10.1836 114.303 9.33496C114.26 8.31372 114.274 2.68971 114.375 1.84108C114.476 0.992445 115.109 0.61847 115.655 0.61847C116.187 0.61847 116.763 1.09313 116.734 1.97053C116.705 2.86232 116.691 8.77399 116.662 9.50756ZM122.018 11.1041C120.594 11.1041 118.968 10.2699 118.523 8.29933C118.149 6.63083 118.94 3.85479 121.96 3.88356C124.966 3.91232 125.729 6.30001 125.657 7.83906C125.556 9.53633 124.305 11.1041 122.018 11.1041ZM123.456 7.85344C123.586 7.43632 123.6 6.58768 122.694 6.14179C121.658 5.62398 120.781 6.50138 120.637 7.03357C120.479 7.66645 120.738 8.58701 121.73 8.77399C122.694 8.97537 123.312 8.42879 123.456 7.85344ZM127.394 5.06302C127.538 3.53835 128.387 3.63903 129.595 3.59588C130.789 3.56712 132.702 3.71095 133.594 4.96233C134.471 6.21371 134.471 8.18427 133.306 9.59386C132.501 10.5576 131.105 10.7446 130.3 10.7733C129.912 10.7733 129.667 11.0754 129.681 11.4637C129.681 11.6795 129.681 11.924 129.681 12.1398C129.681 12.7007 129.293 13.3624 128.66 13.4343C128.027 13.5062 127.452 13.0891 127.481 12.2117C127.524 11.2192 127.265 6.5733 127.394 5.06302ZM129.408 7.66645C129.408 8.21303 129.638 8.44317 130.17 8.44317C130.717 8.44317 131.436 8.44317 131.825 7.72399C132.155 7.10549 131.954 6.27124 131.321 5.92603C130.703 5.59521 129.48 5.62398 129.437 6.24247C129.408 6.77467 129.408 7.24933 129.408 7.66645ZM135.533 7.04796C135.533 5.68151 136.396 3.89794 138.079 3.72534C139.762 3.53835 140.798 4.12808 141.387 5.20685C141.963 6.27124 141.689 7.35001 140.769 7.93974C140.265 8.25618 139.23 8.29933 138.626 8.29933C138.352 8.29933 138.223 8.45755 138.41 8.61577C138.669 8.83153 139.187 9.0329 140.194 8.80276C140.884 8.64454 141.689 9.43564 141.244 10.2267C140.985 10.7014 140.122 11.2767 138.309 10.9603C136.828 10.7014 135.533 9.78085 135.533 7.04796ZM139.661 6.06987C139.532 5.59521 138.957 5.35069 138.396 5.56644C137.849 5.7822 137.806 6.34316 138.079 6.55891C138.482 6.86097 139.82 6.63083 139.661 6.06987ZM150.409 9.53633C150.279 11.061 149.258 10.9747 148.064 11.0178C146.87 11.0754 144.756 10.9459 143.864 9.70893C142.958 8.47194 142.943 6.5733 144.094 5.14932C144.9 4.15685 146.41 3.96986 147.273 3.94109C147.661 3.92671 147.92 3.65342 147.92 3.27944C147.92 2.74725 147.92 2.02807 147.92 1.69724C147.92 1.13628 148.409 0.46025 149.042 0.373948C149.675 0.302029 150.409 0.719156 150.394 1.59656C150.365 2.58903 150.538 8.02605 150.409 9.53633ZM148.208 6.94727C148.208 6.40069 147.963 6.18494 147.431 6.18494C146.885 6.18494 146.165 6.19932 145.777 6.9185C145.461 7.537 145.662 8.37125 146.309 8.71646C146.928 9.04728 148.15 9.00413 148.179 8.38564C148.208 7.83906 148.208 7.37878 148.208 6.94727ZM22.4237 21.6397C22.3949 20.7479 23.1285 20.3308 23.7614 20.4027C24.3942 20.4746 24.8833 21.1363 24.8833 21.7116C24.8833 22.0425 24.8977 22.8048 24.9121 23.337C24.9121 23.6966 25.1997 23.9267 25.6169 23.9411C26.4943 23.9699 27.9614 24.1568 28.7669 25.1205C29.9319 26.5301 29.9319 28.4288 29.0402 29.6802C28.1628 30.9315 26.0484 31.0754 24.8545 31.0322C23.6607 31.0035 22.6251 31.0898 22.4956 29.5795C22.3518 28.0548 22.4525 22.6178 22.4237 21.6397ZM24.7107 28.4C24.7395 29.0185 25.9621 29.0473 26.5806 28.7021C27.2278 28.3569 27.4148 27.5226 27.084 26.9041C26.71 26.1849 25.9764 26.1849 25.4442 26.1849C24.8977 26.1849 24.6675 26.4151 24.6675 26.9617C24.6675 27.3932 24.6675 27.8534 24.7107 28.4ZM31.0385 25.7966C30.6213 24.8904 30.607 24.3294 31.2542 23.8836C31.9015 23.4377 32.6638 23.7973 33.2104 24.6027C33.4981 25.0199 33.944 25.7103 34.2748 26.2137C34.5193 26.5877 34.9077 26.5877 35.2097 26.2137C35.6988 25.5808 36.418 24.6603 36.7344 24.3294C37.0652 23.9842 37.8132 23.524 38.4604 24.2288C39.1221 24.9336 38.8056 25.5808 38.2015 26.3863C37.6118 27.1918 34.4186 31.5644 33.7714 32.111C33.2248 32.5713 32.7645 33.0172 31.9303 32.3555C31.3118 31.8809 31.7433 30.9459 32.2467 30.198C32.4337 29.9103 32.6207 29.6802 32.7789 29.5076C33.0234 29.2199 33.0666 28.8891 32.8508 28.5726C32.2899 27.7671 31.2542 26.2569 31.0385 25.7966ZM54.2731 21.913C54.345 22.1719 54.3163 22.4308 54.1724 22.6609C54.043 22.8767 53.856 23.0205 53.6258 23.0781C53.4676 23.1068 53.3382 23.1356 53.1943 23.1356C52.9067 23.1356 52.6334 23.0349 52.3026 22.8336C51.9861 22.6322 51.3676 22.4596 50.9073 22.4596C50.821 22.4596 50.7347 22.474 50.6628 22.4883C50.2169 22.589 49.9005 23.0062 49.958 23.4664C50.0156 24.0418 50.6916 24.4733 51.3532 24.8185C52.1731 25.25 53.18 26.0843 53.6115 26.9473C54.2156 28.1699 53.8128 29.7233 52.7053 30.5C52.1012 30.9172 51.2525 31.1329 50.2025 31.1329C49.958 31.1329 49.7135 31.1185 49.4546 31.1041C48.8361 31.0466 47.7717 30.6295 47.4984 30.3274C47.0381 29.824 46.9518 29.2055 47.2827 28.7452C47.5559 28.3856 47.9012 28.1986 48.2895 28.1986C48.5053 28.1986 48.7354 28.2418 48.9655 28.3569C49.3827 28.5295 49.958 28.6589 50.4471 28.6589C50.6916 28.6589 50.893 28.6158 51.008 28.5582C51.2094 28.4432 51.3532 28.2274 51.382 27.9973C51.4251 27.7671 51.3388 27.537 51.1662 27.35C50.9649 27.1343 50.5765 26.9041 50.1162 26.6308C49.469 26.2425 48.7354 25.7966 48.2464 25.25C47.3546 24.2288 47.4121 22.8479 47.7573 21.8986C48.2751 20.4746 49.6847 19.9712 50.8354 19.9712C51.1806 19.9712 51.5115 20.0144 51.8135 20.0863C53.3669 20.5034 54.1149 21.3233 54.2731 21.913ZM59.1175 31.1041C57.6935 31.1041 56.0681 30.2699 55.6223 28.2993C55.2483 26.6308 56.0394 23.8548 59.0599 23.8836C62.0661 23.9123 62.8285 26.3 62.7565 27.8391C62.6559 29.5363 61.4045 31.1041 59.1175 31.1041ZM60.5558 27.8534C60.6853 27.4363 60.6997 26.5877 59.7935 26.1418C58.7579 25.624 57.8805 26.5014 57.7366 27.0336C57.5784 27.6665 57.8373 28.587 58.8298 28.774C59.7935 28.9754 60.412 28.4288 60.5558 27.8534ZM71.7146 21.9705C71.7146 21.9705 71.6283 20.5897 72.779 20.5897C73.9153 20.5897 74.1455 21.4959 74.1455 22.1719C74.1455 22.4164 74.1742 23.2794 74.1455 23.9411C74.1167 24.7466 74.9653 24.7466 74.9653 24.7466L77.7989 24.761C77.7989 24.761 78.4318 24.8185 78.4606 23.9842C78.4749 23.3801 78.4749 22.6034 78.4749 22.2582C78.4893 20.8198 79.1222 20.5178 79.8845 20.5897C80.6325 20.676 80.7907 21.2801 80.8339 22.0425C80.9202 23.3945 80.9345 28.774 80.9345 29.7952C80.9345 30.7589 80.388 31.1761 79.6256 31.0898C78.8633 31.0178 78.7338 30.5863 78.5612 29.824C78.4893 29.5219 78.4893 28.4144 78.4893 27.6521C78.4749 27.0192 77.7989 26.9329 77.7989 26.9329L74.9222 26.8897C74.9222 26.8897 74.2461 26.9329 74.2605 27.6521C74.2605 28.3713 74.2749 29.3925 74.2318 29.7665C74.1598 30.7014 73.6996 31.1041 72.9372 31.1041C72.1749 31.1041 71.7722 30.4137 71.8009 29.6082C71.8297 28.7596 71.7146 22.9774 71.7146 21.9705ZM82.7297 25.7966C82.3126 24.8904 82.2982 24.3294 82.9454 23.8836C83.5927 23.4377 84.355 23.7973 84.9016 24.6027C85.1893 25.0199 85.6352 25.7103 85.966 26.2137C86.2105 26.5877 86.5989 26.5877 86.9009 26.2137C87.39 25.5808 88.1092 24.6603 88.4256 24.3294C88.7564 23.9842 89.5044 23.524 90.1516 24.2288C90.8133 24.9336 90.4969 25.5808 89.8927 26.3863C89.303 27.1918 86.1098 31.5644 85.4626 32.111C84.916 32.5713 84.4557 33.0172 83.6215 32.3555C83.003 31.8809 83.4345 30.9459 83.9379 30.198C84.1249 29.9103 84.3119 29.6802 84.4701 29.5076C84.7146 29.2199 84.7578 28.8891 84.542 28.5726C83.9811 27.7671 82.9454 26.2569 82.7297 25.7966ZM91.6238 27.048C91.6238 25.6815 92.4868 23.8979 94.1697 23.7253C95.8526 23.5383 96.8882 24.1281 97.478 25.2069C98.0533 26.2712 97.78 27.35 96.8595 27.9397C96.356 28.2562 95.3204 28.2993 94.7163 28.2993C94.443 28.2993 94.3136 28.4576 94.5006 28.6158C94.7595 28.8315 95.2773 29.0329 96.2841 28.8028C96.9745 28.6445 97.78 29.4356 97.3341 30.2267C97.0752 30.7014 96.2122 31.2767 94.3999 30.9603C92.9184 30.7014 91.6238 29.7808 91.6238 27.048ZM95.7519 26.0699C95.6225 25.5952 95.0471 25.3507 94.4862 25.5664C93.9396 25.7822 93.8964 26.3432 94.1697 26.5589C94.5725 26.861 95.9102 26.6308 95.7519 26.0699ZM100.573 28.1411C99.8251 28.1411 99.3792 27.9973 99.221 27.3932C99.2066 26.8322 99.71 26.2712 100.458 26.2425C101.436 26.3 102.946 26.2425 103.579 26.2425C104.226 26.2425 104.859 26.5733 104.903 27.0336C104.946 27.4795 104.716 28.098 103.924 28.1267C103.292 28.2993 101.148 28.1411 100.573 28.1411ZM106.618 25.0342C106.56 24.013 106.848 23.4233 107.61 23.4233C108.373 23.4233 108.79 23.8836 108.79 24.5884C108.79 25.0342 109.006 25.1205 109.336 24.876C109.682 24.6171 110.142 24.3294 110.645 24.1712C111.667 23.8548 112.659 24.013 112.846 24.8329C113.047 25.6527 112.616 26.0267 111.48 26.3432C110.257 26.6884 109.466 27.4219 109.149 28.5295C108.89 29.4213 109.092 30.7158 108.243 30.9315C106.862 31.3055 106.934 30.4856 106.805 29.7952C106.675 29.0904 106.69 26.0555 106.618 25.0342ZM115.924 24.1712C115.018 24.2288 114.356 23.4808 114.457 22.6322C114.601 21.4959 115.866 21.2226 116.37 21.4959C116.96 21.7979 117.219 22.287 117.219 22.8911C117.219 23.4952 116.83 24.0993 115.924 24.1712ZM114.529 29.5507C114.457 28.7884 114.428 27.3932 114.514 26.2425C114.586 25.1062 115.162 24.7034 115.881 24.7034C116.586 24.7034 117.089 25.2788 117.089 26.5014C117.089 27.7671 117.161 29.2199 117.017 29.9822C116.859 30.7446 116.456 31.2192 115.694 31.1617C114.687 31.0754 114.601 30.313 114.529 29.5507ZM119.261 25.0055C119.261 24.2144 119.692 23.6822 120.296 23.6822C120.627 23.6822 120.886 23.7253 121.102 23.8692C121.26 23.9842 121.706 24.2575 122.066 24.0849C122.339 23.9411 122.713 23.826 123.13 23.8404C123.605 23.8692 123.964 24.0274 124.223 24.2C124.54 24.4014 124.942 24.4445 125.316 24.2719C125.69 24.0993 126.208 23.9267 126.711 23.9699C127.69 24.0562 128.653 24.8473 128.826 26.2425C129.013 27.6377 128.826 29.7952 128.783 30.313C128.74 30.8165 128.351 31.1473 127.79 31.1473C127.244 31.1473 126.942 30.8021 126.855 30.2411C126.755 29.6802 126.898 27.5945 126.812 27.0767C126.711 26.5733 126.395 26.4295 126.021 26.4295C125.647 26.4295 125.46 26.5733 125.316 27.0767C125.187 27.5945 125.23 29.7089 125.187 30.2124C125.144 30.7302 124.683 31.061 124.122 31.061C123.561 31.061 123.331 30.7302 123.202 30.2699C123.058 29.8096 123.101 27.5514 123.044 27.0911C123.001 26.6308 122.857 26.3 122.396 26.2569C121.936 26.2137 121.663 26.487 121.562 26.9473C121.476 27.4075 121.519 30.0685 121.418 30.4856C121.332 30.9028 120.915 31.1904 120.455 31.1904C119.994 31.1904 119.361 30.9172 119.318 30.2124C119.261 29.0904 119.261 25.6671 119.261 25.0055Z" fill="black"/>
</svg>
