<svg width="156" height="200" viewBox="0 0 156 200" fill="none" xmlns="http://www.w3.org/2000/svg">
<g clip-path="url(#clip0_6_301)">
<path d="M150.698 68.909C147.377 65.562 142.962 63.7194 138.265 63.7194H135.184V59.4409C135.184 57.9229 133.963 56.6917 132.456 56.6917H113.215C111.709 56.6917 110.487 57.9222 110.487 59.4409V63.7194H105.382L104.668 57.3746C104.067 52.0306 99.5885 48.0008 94.2517 48.0008H61.5956C56.2588 48.0008 51.7808 52.0306 51.1794 57.3746L50.4655 63.7194H17.583C12.8862 63.7194 8.47078 65.5628 5.14963 68.909C1.82924 72.2559 0 76.7055 0 81.4388V153.331C0 158.064 1.82924 162.514 5.15039 165.861C8.47154 169.208 12.8869 171.051 17.5838 171.051H45.4087C44.2745 168.68 43.1961 166.329 42.1804 164.008C41.8944 163.355 41.3344 162.077 41.3344 162.077C41.2001 161.77 41.0673 161.467 40.9345 161.165H17.583C13.2967 161.165 9.81026 157.651 9.81026 153.332V81.4388C9.81026 77.1192 13.2974 73.6057 17.583 73.6057H59.2261L60.927 58.488C60.9655 58.145 61.253 57.8864 61.5956 57.8864H94.2517C94.5943 57.8864 94.8811 58.145 94.9203 58.488L96.6213 73.6057H138.264C142.551 73.6057 146.037 77.12 146.037 81.4388V153.331C146.037 157.651 142.55 161.164 138.264 161.164H114.914C114.782 161.466 114.649 161.769 114.514 162.075L113.668 164.008C112.651 166.329 111.573 168.679 110.439 171.05H138.264C142.961 171.05 147.377 169.207 150.698 165.86C154.019 162.513 155.848 158.064 155.848 153.33V81.4388C155.848 76.7055 154.019 72.2559 150.698 68.909H150.698Z" fill="#2B2B2B"/>
<path d="M77.9245 136.672C86.5825 136.672 93.6013 129.598 93.6013 120.873C93.6013 112.148 86.5825 105.075 77.9245 105.075C69.2664 105.075 62.2477 112.148 62.2477 120.873C62.2477 129.598 69.2664 136.672 77.9245 136.672Z" fill="#2B2B2B"/>
<path d="M117.551 111.128C117.019 108.508 116.225 105.93 115.191 103.466C114.177 101.05 112.922 98.7187 111.46 96.5391C110.015 94.3823 108.354 92.3541 106.526 90.5114C104.697 88.6688 102.685 86.9957 100.545 85.5386C98.3819 84.0663 96.0689 82.8016 93.6707 81.7787C91.2264 80.7369 88.6682 79.9368 86.0677 79.4007C83.4031 78.8516 80.663 78.5725 77.9237 78.5725C75.1844 78.5725 72.4443 78.8508 69.7797 79.4007C67.1792 79.9368 64.6217 80.7369 62.1767 81.7787C59.7785 82.8008 57.4655 84.0655 55.3028 85.5386C53.1626 86.9957 51.15 88.6688 49.3215 90.5114C47.493 92.3541 45.8328 94.3823 44.387 96.5391C42.926 98.7187 41.6703 101.05 40.656 103.466C39.6222 105.93 38.8283 108.508 38.2963 111.128C37.7514 113.814 37.4745 116.575 37.4745 119.336C37.4745 132.85 41.5427 141.612 49.566 159.938C52.4344 166.489 55.7963 173.284 59.5589 180.135C62.2612 185.056 65.1047 189.891 68.0093 194.506C69.1035 196.245 70.6279 197.669 72.4186 198.625C74.1037 199.525 76.0077 200.001 77.9237 200.001C79.8397 200.001 81.7437 199.525 83.4288 198.625C85.2188 197.669 86.7439 196.245 87.8381 194.506C90.7427 189.891 93.5854 185.056 96.2885 180.135C100.051 173.284 103.414 166.489 106.281 159.938C114.305 141.612 118.373 132.85 118.373 119.336C118.373 116.575 118.097 113.814 117.551 111.128ZM104.464 132.173C103.742 133.894 102.849 135.553 101.808 137.105C100.778 138.642 99.5946 140.087 98.2913 141.4C96.9881 142.714 95.5543 143.905 94.0291 144.944C92.4889 145.993 90.8431 146.893 89.1353 147.621C85.5833 149.135 81.8108 149.903 77.923 149.903C74.0351 149.903 70.2627 149.135 66.7106 147.621C65.0036 146.893 63.357 145.993 61.8168 144.944C60.2916 143.906 58.8578 142.714 57.5546 141.4C56.2513 140.087 55.0688 138.642 54.038 137.105C52.9973 135.553 52.1039 133.894 51.3817 132.173C49.8792 128.594 49.117 124.792 49.117 120.874C49.117 116.956 49.8792 113.154 51.3817 109.575C52.1039 107.854 52.9973 106.195 54.038 104.643C55.0681 103.106 56.2513 101.661 57.5546 100.348C58.8578 99.0343 60.2916 97.8426 61.8168 96.8037C63.357 95.755 65.0028 94.8546 66.7106 94.1268C70.2627 92.6127 74.0351 91.8446 77.923 91.8446C81.8108 91.8446 85.5833 92.6127 89.1353 94.1268C90.8423 94.8546 92.4889 95.755 94.0291 96.8037C95.5543 97.8418 96.9881 99.0343 98.2913 100.348C99.5946 101.661 100.777 103.106 101.808 104.643C102.849 106.195 103.742 107.854 104.464 109.575C105.967 113.154 106.729 116.956 106.729 120.874C106.729 124.792 105.967 128.594 104.464 132.173Z" fill="#2B2B2B"/>
</g>
<path d="M28.2536 10.4664C28.3161 14.9984 28.3786 22.5932 28.3161 23.4996C28.2224 24.8436 27.2847 25.7812 26.0033 25.8437C24.7843 25.9062 23.4091 25.0936 23.3466 23.4996C23.3154 22.6245 23.1591 18.1551 23.0341 14.9984C23.0341 14.9984 23.1591 12.3417 21.9402 14.1857C21.0338 15.5297 20.0024 17.0299 19.6586 17.3737C19.0335 18.0301 18.3146 18.3739 17.5333 18.3739C16.7206 18.3739 15.9393 17.9676 15.2204 17.2174C14.5328 16.4361 13.5327 15.2484 12.72 14.2482C12.345 13.7794 11.6886 13.2794 11.7199 14.8421C11.7824 17.8425 11.6886 22.5932 11.6886 23.3434C11.6261 24.7498 10.5322 25.875 9.12576 25.9375C9.09451 25.9375 9.032 25.9687 8.96949 25.9687C8.15687 25.9687 6.75041 25.6249 6.50037 23.4371C6.3441 21.9681 6.46912 13.8419 6.53163 9.49754V9.37252C6.53163 7.99732 6.56288 7.02842 6.56288 6.65337C6.56288 4.68432 7.21923 3.5279 8.59443 3.05908C8.84447 2.99657 9.09451 2.96532 9.31329 2.96532C10.5635 2.96532 11.5636 4.02798 12.6888 5.34067C13.7515 6.59086 15.3767 9.02872 16.5019 10.654C17.0957 11.5291 17.9083 11.154 18.2521 10.5915C19.7836 8.09108 22.3465 4.09048 23.0341 3.5279C23.6904 2.99657 24.5656 2.68402 25.3469 2.68402C25.9408 2.68402 26.4721 2.87155 26.9097 3.21535C28.1286 4.2155 28.2224 5.40318 28.2224 6.99717C28.2224 7.37222 28.2536 8.68492 28.2536 10.3727V10.4664ZM32.0828 14.6233C31.1764 12.6543 31.1452 11.4353 32.5516 10.4664C33.9581 9.49754 35.6146 10.2789 36.8023 12.0292C37.4273 12.9356 38.3962 14.4358 39.1151 15.5297C39.6464 16.3423 40.4903 16.3423 41.1466 15.5297C42.2093 14.1545 43.772 12.1542 44.4596 11.4353C45.1785 10.6852 46.8037 9.68507 48.2102 11.2165C49.6479 12.748 48.9603 14.1545 47.6476 15.9047C46.3662 17.655 39.4276 27.1564 38.0212 28.3441C36.8335 29.3442 35.8334 30.3131 34.0206 28.8754C32.6766 27.844 33.6143 25.8125 34.7082 24.1872C35.1145 23.5621 35.5208 23.0621 35.8646 22.687C36.3959 22.0619 36.4897 21.3431 36.0209 20.6555C34.802 18.9052 32.5516 15.6235 32.0828 14.6233ZM80.601 2.68402C83.8202 2.8403 86.3519 5.96576 86.2581 9.62256C86.1643 12.873 84.4141 16.5298 80.7885 16.8424C79.4133 16.9674 77.8194 17.0299 76.0691 17.0299C75.7565 17.0299 75.5065 16.9987 75.2252 16.9987C73.9438 17.1237 73.475 18.0301 73.475 18.8739C73.475 20.7805 73.4437 23.4059 73.3812 24.0935C73.1937 25.6562 71.8497 26.5001 70.6933 26.5001C69.5681 26.5001 68.2242 25.7812 68.0054 24.2497C67.8179 23.1558 67.9116 12.7168 67.9429 7.71602C67.9429 6.62211 67.9429 5.80949 67.9429 5.5282C67.9429 3.74668 68.9118 2.65277 70.6308 2.46524C71.0058 2.43399 71.6622 2.40273 72.5373 2.40273C74.4126 2.40273 77.3505 2.4965 80.601 2.68402ZM73.6312 11.4353C73.6625 11.9354 73.8188 11.9354 74.3188 11.9354L74.7877 11.9667C75.194 11.9667 75.8191 11.9667 76.4441 11.9667C77.6943 11.9667 78.632 11.9354 79.1946 11.9041C80.4135 11.8104 81.0386 11.029 81.1323 9.43503C81.1949 8.46614 80.726 7.46599 79.6946 7.37222C78.5382 7.27846 74.9439 7.21595 74.3501 7.21595C73.9438 7.21595 73.6937 7.37222 73.6937 8.09108C73.6937 8.24735 73.6937 8.62241 73.6625 9.02872C73.6312 9.84134 73.6 10.9665 73.6312 11.4353ZM94.9799 22.687C94.8861 24.6248 94.8548 25.875 92.6358 26C90.573 26.1563 89.9166 24.156 89.8541 22.312C89.7603 20.0929 89.7916 7.8723 90.0104 6.02827C90.2292 4.18425 91.6044 3.37163 92.792 3.37163C93.9485 3.37163 95.1986 4.40303 95.1361 6.30956C95.0736 8.24735 95.0424 21.093 94.9799 22.687ZM109.462 25.1561C108.587 25.5937 107.149 26.0313 105.368 25.875C102.273 25.6249 99.2417 23.6872 99.0855 19.7178C98.9604 16.9049 99.5543 13.5919 103.555 11.6541C107.274 9.84134 112.119 11.6541 113.713 14.1857C116.025 17.8113 115.057 22.312 115.025 23.8434C114.994 25.4999 113.869 26.2813 112.462 26.2813C111.837 26.2813 111.4 25.9375 111.087 25.5937C110.681 25.1249 110.15 24.8748 109.462 25.1561ZM109.9 19.5615C110.556 18.2488 110.212 16.1548 107.774 15.4984C105.305 14.8421 104.18 16.5298 103.805 18.1551C103.461 19.7491 104.586 21.5306 106.712 21.5306C108.118 21.5306 109.337 20.718 109.9 19.5615ZM130.735 25.7812C129.329 26.1875 127.61 26.3751 124.61 25.6249C121.64 24.9373 119.234 22.1557 118.984 18.4364C118.765 14.6858 120.703 11.154 124.766 10.0601C128.016 9.15374 130.704 10.0601 131.923 10.8415C132.704 11.3416 133.705 12.3417 133.111 14.0607C132.642 15.4672 131.454 16.061 130.142 15.5922C128.11 14.8733 125.328 14.7483 124.766 17.3425C124.453 18.9364 125.203 20.2804 127.798 20.5929C129.173 20.7492 130.829 20.2804 131.736 20.4992C132.329 20.6242 133.455 21.218 133.455 22.9996C133.455 24.656 132.048 25.4062 130.735 25.7812ZM136.352 17.3425C136.352 14.3733 138.228 10.4977 141.884 10.1226C145.541 9.71632 147.791 10.9978 149.073 13.3419C150.323 15.6547 149.729 17.9988 147.729 19.2802C146.635 19.9679 144.385 20.0616 143.072 20.0616C142.478 20.0616 142.197 20.4054 142.603 20.7492C143.166 21.218 144.291 21.6556 146.479 21.1555C147.979 20.8117 149.729 22.5307 148.76 24.2497C148.198 25.2811 146.322 26.5313 142.384 25.8437C139.165 25.2811 136.352 23.2808 136.352 17.3425ZM145.322 15.2171C145.041 14.1857 143.791 13.6544 142.572 14.1232C141.384 14.592 141.29 15.811 141.884 16.2798C142.759 16.9361 145.666 16.4361 145.322 15.2171Z" fill="black"/>
<defs>
<clipPath id="clip0_6_301">
<rect width="155.848" height="152" fill="white" transform="translate(0 48)"/>
</clipPath>
</defs>
</svg>
